<svg width="22" height="21" viewBox="0 0 22 21" fill="none" xmlns="http://www.w3.org/2000/svg">
<path d="M2 16.463C1.45 16.463 0.979333 16.2673 0.588 15.876C0.196 15.484 0 15.013 0 14.463V2.46301C0 1.91301 0.196 1.44201 0.588 1.05001C0.979333 0.658679 1.45 0.463013 2 0.463013H18C18.55 0.463013 19.021 0.658679 19.413 1.05001C19.8043 1.44201 20 1.91301 20 2.46301V7.46301H18V4.46301L10.525 9.13801C10.4417 9.18801 10.354 9.22535 10.262 9.25001C10.1707 9.27535 10.0833 9.28801 10 9.28801C9.91667 9.28801 9.82933 9.27535 9.738 9.25001C9.646 9.22535 9.55833 9.18801 9.475 9.13801L2 4.46301V14.463H12V16.463H2ZM10 7.46301L18 2.46301H2L10 7.46301ZM18 20.463C16.9 20.463 15.9583 20.0713 15.175 19.288C14.3917 18.5047 14 17.563 14 16.463V11.963C14 11.263 14.2417 10.6713 14.725 10.188C15.2083 9.70468 15.8 9.46301 16.5 9.46301C17.2 9.46301 17.7917 9.70468 18.275 10.188C18.7583 10.6713 19 11.263 19 11.963V15.463C19 15.7463 18.904 15.9837 18.712 16.175C18.5207 16.367 18.2833 16.463 18 16.463C17.7167 16.463 17.4793 16.367 17.288 16.175C17.096 15.9837 17 15.7463 17 15.463V11.963C17 11.8297 16.95 11.713 16.85 11.613C16.75 11.513 16.6333 11.463 16.5 11.463C16.3667 11.463 16.25 11.513 16.15 11.613C16.05 11.713 16 11.8297 16 11.963V16.463C16 17.013 16.1957 17.484 16.587 17.876C16.979 18.2673 17.45 18.463 18 18.463C18.55 18.463 19.021 18.2673 19.413 17.876C19.8043 17.484 20 17.013 20 16.463V13.463C20 13.1797 20.096 12.942 20.288 12.75C20.4793 12.5587 20.7167 12.463 21 12.463C21.2833 12.463 21.5207 12.5587 21.712 12.75C21.904 12.942 22 13.1797 22 13.463V16.463C22 17.563 21.6083 18.5047 20.825 19.288C20.0417 20.0713 19.1 20.463 18 20.463ZM2 4.46301V4.71301V3.26301C2 3.07968 2 3.07968 2 3.26301V3.23801V4.71301V4.46301V14.463V8.46301V4.46301Z" fill="#CCD4F9"/>
</svg>
