<svg width="23" height="24" viewBox="0 0 23 24" fill="none" xmlns="http://www.w3.org/2000/svg">
<path d="M8.41176 20.545C3.1 22.2635 3.1 17.4762 1 16.8624M15.8235 23V18.7037C15.8235 17.4762 15.9471 16.9852 15.2059 16.2486C18.6647 15.8804 22 14.5301 22 8.88352C21.9985 7.41659 21.4226 6.00782 20.3941 4.95546C20.8765 3.68125 20.8321 2.26918 20.2706 1.02739C20.2706 1.02739 18.9118 0.659135 15.9471 2.62317C13.436 1.9733 10.7993 1.9733 8.28823 2.62317C5.32353 0.659135 3.96471 1.02739 3.96471 1.02739C3.40324 2.26918 3.35884 3.68125 3.84118 4.95546C2.81274 6.00782 2.2368 7.41659 2.23529 8.88352C2.23529 14.5301 5.57059 15.8804 9.02941 16.2486C8.28824 16.9852 8.28824 17.7217 8.41176 18.7037V23" stroke="#CCD4F9" stroke-width="2" stroke-linecap="round" stroke-linejoin="round"/>
</svg>
