<svg width="22" height="22" viewBox="0 0 22 22" fill="none" xmlns="http://www.w3.org/2000/svg">
<path d="M15.9146 7.46298C15.0195 7.46283 14.1382 7.68443 13.3496 8.10798C13.2776 7.91832 13.1496 7.75505 12.9826 7.63984C12.8156 7.52464 12.6175 7.46296 12.4146 7.46298H8.41461C8.1494 7.46298 7.89504 7.56834 7.70751 7.75588C7.51997 7.94341 7.41461 8.19777 7.41461 8.46298V20.463C7.41461 20.7282 7.51997 20.9826 7.70751 21.1701C7.89504 21.3576 8.1494 21.463 8.41461 21.463H12.4146C12.6798 21.463 12.9342 21.3576 13.1217 21.1701C13.3093 20.9826 13.4146 20.7282 13.4146 20.463V14.963C13.4146 14.6978 13.52 14.4434 13.7075 14.2559C13.895 14.0683 14.1494 13.963 14.4146 13.963C14.6798 13.963 14.9342 14.0683 15.1217 14.2559C15.3093 14.4434 15.4146 14.6978 15.4146 14.963V20.463C15.4146 20.7282 15.52 20.9826 15.7075 21.1701C15.895 21.3576 16.1494 21.463 16.4146 21.463H20.4146C20.6798 21.463 20.9342 21.3576 21.1217 21.1701C21.3093 20.9826 21.4146 20.7282 21.4146 20.463V12.963C21.4128 11.5049 20.8327 10.107 19.8017 9.07594C18.7706 8.04489 17.3727 7.46484 15.9146 7.46298ZM19.4146 19.463H17.4146V14.963C17.4146 14.1673 17.0985 13.4043 16.5359 12.8417C15.9733 12.2791 15.2103 11.963 14.4146 11.963C13.619 11.963 12.8559 12.2791 12.2933 12.8417C11.7307 13.4043 11.4146 14.1673 11.4146 14.963V19.463H9.41461V9.46298H11.4146V10.166C11.4145 10.3733 11.4788 10.5754 11.5987 10.7446C11.7185 10.9137 11.8879 11.0414 12.0835 11.11C12.2791 11.1787 12.4911 11.1848 12.6904 11.1277C12.8896 11.0705 13.0662 10.9529 13.1956 10.791C13.6445 10.2211 14.2602 9.8056 14.9567 9.60253C15.6532 9.39945 16.3957 9.41893 17.0805 9.65823C17.7654 9.89754 18.3585 10.3447 18.7769 10.9374C19.1954 11.53 19.4183 12.2385 19.4146 12.964V19.463ZM5.41461 7.46298H1.41461C1.1494 7.46298 0.895043 7.56834 0.707507 7.75588C0.519971 7.94341 0.414614 8.19777 0.414614 8.46298V20.463C0.414614 20.7282 0.519971 20.9826 0.707507 21.1701C0.895043 21.3576 1.1494 21.463 1.41461 21.463H5.41461C5.67983 21.463 5.93418 21.3576 6.12172 21.1701C6.30926 20.9826 6.41461 20.7282 6.41461 20.463V8.46298C6.41461 8.19777 6.30926 7.94341 6.12172 7.75588C5.93418 7.56834 5.67983 7.46298 5.41461 7.46298ZM4.41461 19.463H2.41461V9.46298H4.41461V19.463ZM3.42961 0.00598427C2.99171 -0.0206964 2.55295 0.0420295 2.14006 0.190343C1.72717 0.338656 1.34878 0.569453 1.02794 0.868681C0.707102 1.16791 0.45052 1.52931 0.27382 1.93087C0.0971201 2.33243 0.00399868 2.76576 0.000125973 3.20446C-0.00374674 3.64317 0.0817102 4.07807 0.251294 4.48269C0.420877 4.88731 0.671038 5.25318 0.986546 5.55802C1.30205 5.86287 1.6763 6.10031 2.08651 6.25589C2.49672 6.41147 2.9343 6.48193 3.37261 6.46298H3.40061C3.83877 6.48802 4.27744 6.42358 4.68988 6.27359C5.10233 6.12361 5.47992 5.89122 5.79965 5.59059C6.11939 5.28996 6.37456 4.92738 6.54963 4.52494C6.72471 4.1225 6.81601 3.68863 6.81798 3.24977C6.81995 2.8109 6.73255 2.37623 6.5611 1.97223C6.38965 1.56824 6.13774 1.20338 5.82072 0.899888C5.5037 0.596397 5.12821 0.360628 4.71713 0.206947C4.30605 0.0532654 3.86798 -0.0151108 3.42961 0.00598427ZM3.40061 4.46298H3.37261C3.19966 4.4841 3.02418 4.46798 2.85797 4.41572C2.69175 4.36345 2.53863 4.27624 2.40888 4.15995C2.27914 4.04365 2.17576 3.90095 2.10569 3.74141C2.03562 3.58188 2.00047 3.40921 2.00261 3.23498C2.00261 2.48798 2.56261 2.00598 3.42961 2.00598C3.60422 1.983 3.78173 1.99767 3.95021 2.04899C4.11868 2.10031 4.27422 2.18709 4.40636 2.30352C4.53851 2.41994 4.64421 2.5633 4.71635 2.72396C4.78849 2.88463 4.82541 3.05887 4.82461 3.23498C4.82461 3.98098 4.26561 4.46298 3.40061 4.46298Z" fill="#CCD4F9"/>
</svg>
