<svg xmlns="http://www.w3.org/2000/svg" version="1.1" xmlns:xlink="http://www.w3.org/1999/xlink" xmlns:svgjs="http://svgjs.dev/svgjs" width="2000" height="2250" viewBox="0 0 2000 2250"><g transform="matrix(1,0,0,1,0,0)"><svg viewBox="0 0 320 360" data-background-color="#ffffff" preserveAspectRatio="xMidYMid meet" height="2250" width="2000" xmlns="http://www.w3.org/2000/svg" xmlns:xlink="http://www.w3.org/1999/xlink"><g id="tight-bounds" transform="matrix(1,0,0,1,0,0)"><svg viewBox="0 0 320 360" height="360" width="320"><g><svg></svg></g><g><svg viewBox="0 0 320 360" height="360" width="320"><g><path d="M297.491 100.645c-12.426-21.51-112.674-79.355-137.491-79.355-24.817 0-125.028 57.845-137.491 79.355-11.591 20.02-11.591 138.726 0 158.746 12.463 21.474 112.674 79.319 137.491 79.319 24.817 0 125.064-57.845 137.491-79.355 11.591-20.02 11.591-138.69 0-158.71zM309.481 93.705c-14.461-24.998-119.469-86.295-149.481-86.295-30.012 0-135.02 61.297-149.481 86.295-14.025 24.199-14.025 148.391 0 172.59 14.461 24.998 119.469 86.295 149.481 86.295 30.012 0 135.02-61.297 149.481-86.259 14.025-24.235 14.025-148.427 0-172.626zM300.906 261.353c-12.753 22.055-115.472 81.317-140.906 81.318-25.434 0-128.153-59.298-140.906-81.354-11.881-20.529-11.881-142.178 0-162.707 12.753-22.019 115.472-81.281 140.906-81.281 25.434 0 128.153 59.298 140.906 81.318 11.881 20.529 11.881 142.178 0 162.706z" fill="#77d4fc" fill-rule="nonzero" stroke="none" stroke-width="1" stroke-linecap="butt" stroke-linejoin="miter" stroke-miterlimit="10" stroke-dasharray="" stroke-dashoffset="0" font-family="none" font-weight="none" font-size="none" text-anchor="none" style="mix-blend-mode: normal" data-fill-palette-color="tertiary"></path></g><g transform="matrix(1,0,0,1,104.85714285714286,90)"><svg viewBox="0 0 110.28571428571429 180" height="180" width="110.28571428571429"><g><svg viewBox="0 0 110.28571428571429 180" height="180" width="110.28571428571429"><g><svg viewBox="0 0 110.28571428571429 180" height="180" width="110.28571428571429"><g><svg viewBox="0 0 110.28571428571429 180" height="180" width="110.28571428571429"><g id="textblocktransform"><svg viewBox="0 0 110.28571428571429 180" height="180" width="110.28571428571429" id="textblock"><g><svg viewBox="0 0 110.28571428571429 180" height="180" width="110.28571428571429"><g transform="matrix(1,0,0,1,0,0)"><svg width="110.28571428571429" viewBox="2.5 -36.1 28.95 47.25" height="180" data-palette-color="#ffffff"><path d="M8.5 0.2Q5.85 0.2 4.45-1.38 3.05-2.95 3.05-5.45L3.05-5.45 3.05-24.9 8.75-24.9 8.75-5.95Q8.75-4.8 9.1-4.4 9.45-4 10.15-4L10.15-4Q10.35-4 10.58-4 10.8-4 11-4.05L11-4.05Q11.2-4.05 11.45-4.1L11.45-4.1 12.05-0.5Q11.7-0.3 11.15-0.15L11.15-0.15Q10.7 0 10.03 0.1 9.35 0.2 8.5 0.2L8.5 0.2ZM6-36Q7.6-36 8.45-35.05 9.3-34.1 9.3-32.6L9.3-32.6Q9.3-31.1 8.43-30.1 7.55-29.1 5.85-29.1L5.85-29.1Q4.25-29.1 3.38-30.08 2.5-31.05 2.5-32.45L2.5-32.45Q2.5-34 3.38-35 4.25-36 6-36L6-36ZM31.45-34L29-30.75Q28.85-30.9 28.07-31.3 27.3-31.7 26.6-31.7L26.6-31.7Q26.15-31.7 25.5-31.58 24.85-31.45 24.25-31.03 23.65-30.6 23.22-29.8 22.8-29 22.8-27.7L22.8-27.7Q22.8-27.15 22.87-26.45 22.95-25.75 23.2-24.9L23.2-24.9 29.4-24.9 28.7-20.85 23.5-20.85 23.5-1.25Q23.5 1.75 22.72 3.78 21.95 5.8 20.7 7.18 19.45 8.55 17.92 9.47 16.4 10.4 14.9 11.15L14.9 11.15 12.6 7.35Q14.45 6.4 15.5 5.33 16.55 4.25 17.07 3.18 17.6 2.1 17.7 1.1 17.8 0.1 17.8-0.7L17.8-0.7 17.8-20.85 13.3-20.85 13.3-24.9 17.65-24.9Q17.45-25.65 17.37-26.45 17.3-27.25 17.3-27.95L17.3-27.95Q17.3-29.95 18.02-31.5 18.75-33.05 19.97-34.05 21.2-35.05 22.82-35.58 24.45-36.1 26.2-36.1L26.2-36.1Q28.15-36.1 29.4-35.48 30.65-34.85 31.45-34L31.45-34Z" opacity="1" transform="matrix(1,0,0,1,0,0)" fill="#ffffff" class="wordmark-text-0" data-fill-palette-color="quaternary" id="text-0"></path></svg></g></svg></g></svg></g></svg></g><g></g></svg></g></svg></g></svg></g></svg></g><defs></defs></svg><rect width="320" height="360" fill="none" stroke="none" visibility="hidden"></rect></g></svg></g></svg>