<svg width="403" height="403" viewBox="0 0 403 403" fill="none" xmlns="http://www.w3.org/2000/svg">
<circle cx="201.5" cy="201.5" r="201.5" fill="white"/>
<path d="M306.236 171.026V180.912H284.885V232.927H274.209V180.913H252.414V171.026H306.236ZM308.636 227.03C309.388 227.03 310.046 227.299 310.603 227.839C311.168 228.377 311.449 229.023 311.457 229.775C311.456 230.269 311.318 230.752 311.059 231.173C310.805 231.588 310.449 231.932 310.024 232.173C309.605 232.422 309.125 232.552 308.636 232.549C307.854 232.549 307.189 232.279 306.632 231.74C306.075 231.201 305.8 230.548 305.807 229.775C305.8 229.023 306.075 228.377 306.632 227.839C307.189 227.299 307.854 227.03 308.636 227.03ZM97.0411 232.927L57.6762 184.231V232.901H47V171H60.3443L110.078 232.464L110.078 180.913L110.074 171.026H163.896V180.912H120.754V196.818H155.449V206.705H120.754V223.04H163.896V232.927H97.0411ZM198.111 206.611L205.108 215.268L190.771 233H176.761L198.111 206.611ZM190.771 171.052L208.835 193.378L226.841 171.12L240.812 171.099L215.829 202.023L240.853 232.953H226.841L176.801 171.052H190.771ZM326.857 206.472H331.587V224.611C331.581 226.278 331.218 227.703 330.51 228.903C329.794 230.101 328.802 231.017 327.53 231.662C326.264 232.3 324.781 232.627 323.095 232.627C321.554 232.627 320.174 232.351 318.944 231.811C317.714 231.272 316.738 230.463 316.021 229.399C315.297 228.335 314.943 227.009 314.943 225.42H319.682C319.689 226.115 319.848 226.717 320.151 227.222C320.45 227.72 320.887 228.121 321.41 228.377C321.952 228.648 322.575 228.782 323.276 228.782C324.036 228.782 324.687 228.626 325.215 228.307C325.742 227.994 326.148 227.526 326.43 226.902C326.705 226.285 326.85 225.519 326.857 224.611V206.472ZM351.052 213.565C350.937 212.466 350.43 211.607 349.548 210.998C348.658 210.38 347.508 210.076 346.097 210.076C345.107 210.076 344.253 210.225 343.544 210.515C342.836 210.813 342.286 211.21 341.909 211.714C341.534 212.218 341.345 212.792 341.33 213.438C341.33 213.977 341.461 214.445 341.714 214.835C341.976 215.244 342.33 215.586 342.748 215.836C343.202 216.12 343.688 216.351 344.195 216.524C344.73 216.708 345.266 216.864 345.801 216.992L348.267 217.595C349.259 217.822 350.221 218.127 351.139 218.517C352.057 218.9 352.889 219.39 353.62 219.979C354.351 220.567 354.929 221.277 355.356 222.107C355.783 222.937 356 223.909 356 225.029C356 226.54 355.61 227.867 354.821 229.016C354.033 230.158 352.897 231.052 351.407 231.698C349.924 232.336 348.13 232.662 346.018 232.662C343.978 232.662 342.199 232.35 340.701 231.726C339.197 231.109 338.025 230.2 337.178 229.009C336.332 227.817 335.876 226.363 335.811 224.653H340.499C340.564 225.547 340.854 226.292 341.345 226.895C341.844 227.491 342.495 227.931 343.291 228.228C344.094 228.52 344.991 228.669 345.982 228.669C347.016 228.669 347.927 228.513 348.716 228.207C349.497 227.902 350.112 227.477 350.553 226.923C351.002 226.377 351.226 225.732 351.233 224.994C351.226 224.32 351.023 223.76 350.632 223.319C350.235 222.88 349.685 222.511 348.983 222.213C348.275 221.915 347.45 221.645 346.51 221.412L343.515 220.66C341.352 220.113 339.638 219.284 338.386 218.169C337.128 217.056 336.506 215.581 336.506 213.729C336.506 212.211 336.925 210.877 337.772 209.735C338.611 208.593 339.761 207.706 341.215 207.075C342.676 206.436 344.326 206.124 346.162 206.124C348.029 206.124 349.663 206.436 351.074 207.075C352.484 207.706 353.591 208.585 354.393 209.706C355.197 210.828 355.617 212.111 355.638 213.565H351.052Z" fill="black"/>
</svg>
