<svg width="403" height="403" viewBox="0 0 403 403" fill="none" xmlns="http://www.w3.org/2000/svg">
<circle cx="201.5" cy="201.5" r="201.5" fill="white"/>
<path d="M200.47 287.68C199.514 287.68 198.622 287.425 197.793 286.979L189.315 281.944C188.04 281.242 188.678 280.987 189.06 280.86C190.781 280.286 191.1 280.158 192.885 279.139C193.076 279.011 193.331 279.075 193.522 279.203L200.024 283.091C200.279 283.218 200.598 283.218 200.789 283.091L226.222 268.366C226.477 268.239 226.605 267.983 226.605 267.665V238.28C226.605 237.961 226.477 237.706 226.222 237.578L200.789 222.918C200.534 222.79 200.215 222.79 200.024 222.918L174.591 237.578C174.336 237.706 174.208 238.024 174.208 238.279V267.665C174.208 267.92 174.336 268.238 174.591 268.366L181.539 272.382C185.3 274.294 187.658 272.063 187.658 269.832V240.829C187.658 240.447 187.977 240.064 188.423 240.064H191.674C192.056 240.064 192.439 240.383 192.439 240.829V269.832C192.439 274.868 189.697 277.8 184.917 277.8C183.451 277.8 182.304 277.8 179.052 276.206L172.36 272.382C170.702 271.426 169.682 269.641 169.682 267.729V238.343C169.682 236.431 170.702 234.646 172.36 233.69L197.793 218.965C199.387 218.073 201.554 218.073 203.148 218.965L228.581 233.69C230.238 234.646 231.258 236.431 231.258 238.343V267.729C231.258 269.641 230.238 271.426 228.581 272.382L203.148 287.107C202.319 287.489 201.362 287.68 200.47 287.68ZM208.31 267.474C197.156 267.474 194.861 262.374 194.861 258.04C194.861 257.657 195.18 257.275 195.626 257.275H198.94C199.323 257.275 199.641 257.53 199.641 257.913C200.152 261.291 201.618 262.948 208.374 262.948C213.729 262.948 216.024 261.737 216.024 258.868C216.024 257.211 215.386 256 207.036 255.171C200.088 254.47 195.753 252.941 195.753 247.395C195.753 242.232 200.088 239.172 207.355 239.172C215.513 239.172 219.53 241.977 220.04 248.095C220.04 248.287 219.976 248.478 219.848 248.67C219.72 248.797 219.53 248.924 219.338 248.924H216.024C215.705 248.924 215.386 248.67 215.323 248.351C214.558 244.845 212.581 243.697 207.355 243.697C201.49 243.697 200.789 245.738 200.789 247.267C200.789 249.116 201.618 249.689 209.522 250.709C217.362 251.729 221.06 253.195 221.06 258.677C220.996 264.287 216.406 267.474 208.31 267.474Z" fill="#539E43"/>
<path d="M121.556 172.752C121.556 171.605 120.919 170.52 119.899 169.947L92.8717 154.394C92.4249 154.138 91.9153 154.011 91.4057 153.947H91.1504C90.6408 153.947 90.1306 154.138 89.6844 154.394L62.6573 169.947C61.637 170.52 61 171.604 61 172.752L61.064 214.567C61.064 215.14 61.3828 215.714 61.8924 215.969C62.4025 216.288 63.0395 216.288 63.4863 215.969L79.5495 206.79C80.5693 206.217 81.2069 205.133 81.2069 203.986V184.417C81.2069 183.269 81.8439 182.186 82.8642 181.612L89.6844 177.66C90.1946 177.341 90.7682 177.213 91.3417 177.213C91.9153 177.213 92.4889 177.341 92.9357 177.66L99.7559 181.612C100.776 182.186 101.413 183.269 101.413 184.417V203.986C101.413 205.133 102.051 206.217 103.071 206.79L119.134 215.969C119.382 216.126 119.669 216.209 119.962 216.209C120.256 216.209 120.543 216.126 120.791 215.969C121.301 215.714 121.62 215.14 121.62 214.567L121.556 172.752ZM251.465 115.192C250.955 114.936 250.317 114.936 249.871 115.192C249.361 115.51 249.042 116.02 249.042 116.594V158.027C249.042 158.409 248.851 158.791 248.469 159.047C248.086 159.238 247.704 159.238 247.322 159.047L240.565 155.159C240.069 154.876 239.509 154.728 238.939 154.728C238.369 154.728 237.809 154.876 237.313 155.159L210.286 170.776C209.267 171.349 208.629 172.433 208.629 173.58V204.75C208.629 205.897 209.267 206.982 210.286 207.555L237.313 223.172C237.809 223.454 238.369 223.603 238.939 223.603C239.509 223.603 240.069 223.454 240.565 223.172L267.592 207.555C268.612 206.982 269.249 205.898 269.249 204.75V127.048C269.249 125.837 268.612 124.753 267.592 124.179L251.465 115.192ZM248.979 194.488C248.979 194.807 248.851 195.062 248.596 195.189L239.354 200.543C239.225 200.606 239.083 200.639 238.939 200.639C238.795 200.639 238.654 200.606 238.525 200.543L229.282 195.189C229.027 195.062 228.899 194.743 228.899 194.488V183.779C228.899 183.46 229.027 183.205 229.282 183.078L238.525 177.723C238.654 177.66 238.795 177.627 238.939 177.627C239.083 177.627 239.225 177.66 239.354 177.723L248.596 183.078C248.851 183.205 248.979 183.524 248.979 183.779V194.488ZM341.406 183.524C342.426 182.951 343 181.867 343 180.719V173.134C343 171.987 342.362 170.903 341.406 170.329L314.57 154.776C314.075 154.494 313.515 154.346 312.945 154.346C312.375 154.346 311.815 154.494 311.319 154.776L284.292 170.393C283.272 170.966 282.635 172.05 282.635 173.197V204.368C282.635 205.515 283.272 206.599 284.292 207.173L311.128 222.471C312.148 223.044 313.359 223.044 314.316 222.471L330.57 213.42C331.08 213.165 331.399 212.591 331.399 212.018C331.399 211.444 331.08 210.871 330.57 210.615L303.415 194.998C302.905 194.679 302.586 194.17 302.586 193.596V183.843C302.586 183.27 302.905 182.696 303.415 182.441L311.893 177.596C312.141 177.44 312.428 177.357 312.721 177.357C313.015 177.357 313.302 177.44 313.55 177.596L322.028 182.441C322.538 182.76 322.857 183.269 322.857 183.843V191.493C322.857 192.066 323.175 192.64 323.686 192.895C323.934 193.051 324.221 193.134 324.514 193.134C324.807 193.134 325.095 193.051 325.343 192.895L341.406 183.524Z" fill="#333333"/>
<path d="M312.53 182.058C312.625 181.995 312.736 181.962 312.849 181.962C312.962 181.962 313.073 181.995 313.168 182.058L318.331 185.054C318.522 185.181 318.649 185.372 318.649 185.627V191.619C318.649 191.874 318.523 192.066 318.331 192.193L313.168 195.189C313.073 195.251 312.962 195.285 312.849 195.285C312.736 195.285 312.625 195.251 312.53 195.189L307.367 192.193C307.176 192.066 307.049 191.874 307.049 191.619V185.628C307.049 185.372 307.175 185.181 307.367 185.054L312.53 182.058Z" fill="#539E43"/>
<path d="M166.75 154.904C166.255 154.622 165.694 154.474 165.125 154.474C164.555 154.474 163.994 154.622 163.499 154.904L136.663 170.392C135.643 170.966 135.07 172.05 135.07 173.197V204.24C135.07 205.387 135.707 206.471 136.663 207.045L163.499 222.534C163.994 222.816 164.555 222.964 165.125 222.964C165.694 222.964 166.255 222.816 166.75 222.534L193.586 207.045C194.606 206.471 195.18 205.387 195.18 204.24V173.197C195.18 172.05 194.542 170.966 193.586 170.393L166.75 154.904Z" fill="url(#paint0_linear_313_7)"/>
<defs>
<linearGradient id="paint0_linear_313_7" x1="4233.88" y1="1352.17" x2="1292.43" y2="5974.07" gradientUnits="userSpaceOnUse">
<stop stop-color="#41873F"/>
<stop offset="0.3288" stop-color="#418B3D"/>
<stop offset="0.6352" stop-color="#419637"/>
<stop offset="0.9319" stop-color="#3FA92D"/>
<stop offset="1" stop-color="#3FAE2A"/>
</linearGradient>
</defs>
</svg>
