<svg width="403" height="403" viewBox="0 0 403 403" fill="none" xmlns="http://www.w3.org/2000/svg">
<circle cx="201.5" cy="201.5" r="201.5" fill="white"/>
<path d="M201.857 186.041C212.494 186.041 221.117 177.418 221.117 166.781C221.117 156.144 212.494 147.521 201.857 147.521C191.22 147.521 182.597 156.144 182.597 166.781C182.597 177.418 191.22 186.041 201.857 186.041Z" fill="#00D8FF"/>
<path d="M201.857 210.941C178.707 211.501 155.616 208.38 133.445 201.696C123.203 198.449 113.651 193.335 105.271 186.611C102.073 184.314 99.4104 181.353 97.4649 177.93C95.5193 174.507 94.3374 170.703 94 166.781C94 154.046 107.991 141.565 131.426 133.399C154.19 126.163 177.974 122.656 201.857 123.014C225.422 122.685 248.887 126.128 271.363 133.214C281.227 136.359 290.455 141.226 298.621 147.59C301.764 149.78 304.387 152.634 306.304 155.95C308.221 159.267 309.385 162.964 309.714 166.781C309.714 180.016 294.075 193.429 268.883 201.765C247.141 208.232 224.537 211.326 201.857 210.941ZM201.857 132.228C179.008 131.923 156.255 135.256 134.454 142.105C112.883 149.631 103.214 159.924 103.214 166.758C103.214 173.907 113.607 185.147 136.426 192.952C157.636 199.314 179.72 202.276 201.857 201.727C223.555 202.115 245.184 199.179 265.994 193.021C289.684 185.17 300.47 173.915 300.47 166.781C300.081 164.333 299.189 161.992 297.849 159.906C296.51 157.82 294.753 156.035 292.688 154.662C285.383 149.016 277.139 144.703 268.336 141.92C246.834 135.169 224.391 131.897 201.857 132.228Z" fill="#00D8FF"/>
<path d="M158.098 262.843C154.504 262.926 150.952 262.054 147.805 260.316C136.773 253.953 132.952 235.601 137.582 211.218C142.687 187.883 151.532 165.527 163.776 145.017C175.26 124.44 189.963 105.833 207.327 89.9017C214.978 82.9273 223.805 77.3637 233.398 73.4689C236.867 71.8429 240.652 71 244.484 71C248.316 71 252.1 71.8429 255.57 73.4689C267.041 80.079 270.839 100.325 265.485 126.311C260.222 148.38 251.607 169.511 239.938 188.969C228.858 209.302 214.618 227.747 197.751 243.614C189.822 250.862 180.619 256.579 170.609 260.478C166.602 261.965 162.372 262.765 158.098 262.843ZM171.757 149.593C160.079 169.233 151.601 190.607 146.642 212.913C142.382 235.37 146.472 248.876 152.42 252.312C158.583 255.879 173.545 252.497 191.711 236.626C207.813 221.426 221.404 203.77 231.98 184.315C243.158 165.714 251.423 145.511 256.487 124.408C261.525 99.9479 257.172 84.9711 250.994 81.4118C248.678 80.5245 246.203 80.1273 243.726 80.2454C241.249 80.3634 238.823 80.994 236.603 82.0975C228.064 85.6209 220.214 90.6231 213.413 96.8739C196.824 112.134 182.779 129.947 171.811 149.639L171.757 149.593Z" fill="#00D8FF"/>
<path d="M245.594 262.943C235.155 262.943 221.896 256.626 208.09 244.754C190.422 228.678 175.471 209.85 163.815 188.999C151.725 168.771 142.95 146.739 137.821 123.738C135.597 113.619 135.185 103.185 136.604 92.9217C136.932 89.1144 138.091 85.4254 140 82.1149C141.909 78.8044 144.521 75.9529 147.652 73.7616C159.108 67.1284 178.545 73.9465 198.383 91.5581C214.874 107.137 228.879 125.153 239.908 144.978C251.99 164.734 260.858 186.284 266.179 208.822C268.499 219.313 268.857 230.142 267.234 240.763C266.848 244.68 265.62 248.467 263.633 251.865C261.647 255.262 258.949 258.19 255.725 260.447C252.629 262.163 249.132 263.024 245.594 262.943ZM171.788 184.362C182.97 204.288 197.253 222.307 214.099 237.743C231.426 252.651 245.17 255.855 251.079 252.381C257.242 248.798 261.788 234.176 257.104 210.517C251.972 188.999 243.466 168.429 231.903 149.57C221.378 130.596 208.011 113.344 192.266 98.4147C173.591 81.8355 158.445 78.1299 152.274 81.7045C150.351 83.2676 148.772 85.2124 147.639 87.4163C146.505 89.6201 145.84 92.0351 145.687 94.5087C144.462 103.662 144.861 112.959 146.866 121.974C151.799 143.97 160.215 165.037 171.796 184.377L171.788 184.362Z" fill="#00D8FF"/>
<path d="M90.6541 314V287.091H100.745C102.812 287.091 104.547 287.45 105.948 288.168C107.358 288.887 108.423 289.894 109.141 291.19C109.868 292.478 110.232 293.98 110.232 295.697C110.232 297.423 109.864 298.921 109.128 300.191C108.401 301.452 107.328 302.429 105.909 303.121C104.49 303.804 102.747 304.146 100.679 304.146H93.4922V300.099H100.022C101.231 300.099 102.221 299.932 102.992 299.599C103.763 299.258 104.332 298.763 104.7 298.115C105.077 297.458 105.265 296.652 105.265 295.697C105.265 294.742 105.077 293.928 104.7 293.253C104.323 292.57 103.75 292.053 102.979 291.703C102.208 291.344 101.214 291.164 99.9961 291.164H95.5288V314H90.6541ZM104.555 301.807L111.217 314H105.777L99.234 301.807H104.555ZM123.154 314.394C121.131 314.394 119.383 313.974 117.911 313.133C116.449 312.283 115.323 311.083 114.535 309.533C113.746 307.973 113.352 306.138 113.352 304.027C113.352 301.951 113.746 300.129 114.535 298.561C115.332 296.985 116.444 295.758 117.872 294.882C119.3 293.998 120.977 293.555 122.904 293.555C124.148 293.555 125.322 293.757 126.426 294.16C127.538 294.554 128.519 295.167 129.369 295.999C130.227 296.831 130.902 297.891 131.392 299.179C131.883 300.458 132.128 301.982 132.128 303.751V305.21H115.586V302.004H127.569C127.56 301.093 127.363 300.283 126.977 299.573C126.592 298.855 126.053 298.29 125.361 297.878C124.678 297.467 123.881 297.261 122.97 297.261C121.998 297.261 121.144 297.497 120.408 297.97C119.672 298.434 119.098 299.048 118.687 299.81C118.284 300.563 118.078 301.391 118.069 302.293V305.092C118.069 306.265 118.284 307.273 118.713 308.114C119.142 308.946 119.742 309.585 120.513 310.032C121.284 310.47 122.186 310.689 123.22 310.689C123.912 310.689 124.538 310.593 125.099 310.4C125.659 310.198 126.145 309.905 126.557 309.52C126.969 309.134 127.28 308.657 127.49 308.087L131.931 308.587C131.651 309.76 131.116 310.785 130.328 311.661C129.548 312.528 128.55 313.203 127.332 313.685C126.115 314.158 124.722 314.394 123.154 314.394ZM141.959 314.407C140.681 314.407 139.529 314.18 138.504 313.724C137.488 313.26 136.682 312.577 136.086 311.674C135.499 310.772 135.206 309.66 135.206 308.337C135.206 307.198 135.416 306.257 135.837 305.512C136.257 304.768 136.831 304.172 137.558 303.725C138.285 303.278 139.104 302.941 140.015 302.713C140.935 302.477 141.885 302.306 142.866 302.201C144.049 302.078 145.008 301.969 145.744 301.873C146.479 301.767 147.014 301.61 147.347 301.4C147.688 301.181 147.859 300.843 147.859 300.388V300.309C147.859 299.319 147.565 298.553 146.979 298.01C146.392 297.467 145.546 297.195 144.443 297.195C143.278 297.195 142.354 297.449 141.67 297.957C140.996 298.465 140.54 299.065 140.304 299.757L135.863 299.126C136.213 297.9 136.791 296.875 137.597 296.052C138.403 295.22 139.389 294.598 140.554 294.186C141.719 293.766 143.006 293.555 144.416 293.555C145.389 293.555 146.357 293.669 147.32 293.897C148.284 294.125 149.164 294.501 149.961 295.027C150.758 295.544 151.398 296.249 151.88 297.142C152.37 298.036 152.615 299.153 152.615 300.493V314H148.043V311.228H147.885C147.596 311.788 147.189 312.314 146.663 312.804C146.146 313.286 145.494 313.676 144.706 313.974C143.926 314.263 143.011 314.407 141.959 314.407ZM143.195 310.912C144.149 310.912 144.977 310.724 145.678 310.347C146.379 309.962 146.917 309.454 147.294 308.823C147.679 308.192 147.872 307.505 147.872 306.76V304.382C147.723 304.505 147.469 304.619 147.11 304.724C146.76 304.829 146.365 304.921 145.927 305C145.489 305.078 145.056 305.149 144.627 305.21C144.197 305.271 143.825 305.324 143.51 305.368C142.8 305.464 142.165 305.622 141.605 305.841C141.044 306.06 140.602 306.366 140.278 306.76C139.954 307.146 139.791 307.645 139.791 308.258C139.791 309.134 140.111 309.795 140.751 310.242C141.39 310.689 142.205 310.912 143.195 310.912ZM166.201 314.394C164.187 314.394 162.457 313.952 161.011 313.067C159.575 312.182 158.467 310.96 157.687 309.401C156.916 307.833 156.531 306.029 156.531 303.988C156.531 301.938 156.925 300.129 157.713 298.561C158.502 296.985 159.614 295.758 161.051 294.882C162.496 293.998 164.204 293.555 166.175 293.555C167.813 293.555 169.263 293.858 170.524 294.462C171.794 295.058 172.806 295.903 173.559 296.998C174.313 298.084 174.742 299.354 174.847 300.808H170.301C170.117 299.836 169.679 299.026 168.987 298.377C168.304 297.721 167.388 297.392 166.241 297.392C165.268 297.392 164.414 297.655 163.679 298.18C162.943 298.697 162.369 299.442 161.957 300.414C161.554 301.386 161.353 302.551 161.353 303.909C161.353 305.284 161.554 306.467 161.957 307.457C162.36 308.438 162.925 309.195 163.652 309.73C164.388 310.255 165.251 310.518 166.241 310.518C166.941 310.518 167.568 310.387 168.12 310.124C168.68 309.852 169.149 309.463 169.525 308.955C169.902 308.446 170.161 307.829 170.301 307.102H174.847C174.733 308.53 174.313 309.795 173.585 310.899C172.858 311.994 171.869 312.853 170.616 313.474C169.363 314.088 167.892 314.394 166.201 314.394ZM188.83 293.818V297.497H177.228V293.818H188.83ZM180.093 288.983H184.849V307.93C184.849 308.569 184.945 309.06 185.138 309.401C185.34 309.734 185.602 309.962 185.926 310.085C186.251 310.207 186.61 310.268 187.004 310.268C187.302 310.268 187.573 310.247 187.819 310.203C188.073 310.159 188.265 310.12 188.397 310.085L189.198 313.803C188.944 313.891 188.581 313.987 188.108 314.092C187.643 314.197 187.074 314.258 186.4 314.276C185.208 314.311 184.135 314.131 183.18 313.737C182.226 313.334 181.468 312.712 180.907 311.871C180.355 311.031 180.084 309.979 180.093 308.718V288.983ZM224.309 287.091V314H219.973L207.294 295.671H207.071V314H202.196V287.091H206.558L219.225 305.433H219.461V287.091H224.309ZM235.218 314.407C233.939 314.407 232.787 314.18 231.763 313.724C230.747 313.26 229.941 312.577 229.345 311.674C228.758 310.772 228.465 309.66 228.465 308.337C228.465 307.198 228.675 306.257 229.095 305.512C229.516 304.768 230.09 304.172 230.817 303.725C231.544 303.278 232.363 302.941 233.274 302.713C234.193 302.477 235.144 302.306 236.125 302.201C237.307 302.078 238.267 301.969 239.002 301.873C239.738 301.767 240.272 301.61 240.605 301.4C240.947 301.181 241.118 300.843 241.118 300.388V300.309C241.118 299.319 240.824 298.553 240.237 298.01C239.651 297.467 238.805 297.195 237.702 297.195C236.537 297.195 235.612 297.449 234.929 297.957C234.255 298.465 233.799 299.065 233.563 299.757L229.122 299.126C229.472 297.9 230.05 296.875 230.856 296.052C231.662 295.22 232.647 294.598 233.812 294.186C234.977 293.766 236.265 293.555 237.675 293.555C238.648 293.555 239.615 293.669 240.579 293.897C241.543 294.125 242.423 294.501 243.22 295.027C244.017 295.544 244.657 296.249 245.138 297.142C245.629 298.036 245.874 299.153 245.874 300.493V314H241.302V311.228H241.144C240.855 311.788 240.448 312.314 239.922 312.804C239.405 313.286 238.753 313.676 237.964 313.974C237.185 314.263 236.269 314.407 235.218 314.407ZM236.453 310.912C237.408 310.912 238.236 310.724 238.937 310.347C239.637 309.962 240.176 309.454 240.553 308.823C240.938 308.192 241.131 307.505 241.131 306.76V304.382C240.982 304.505 240.728 304.619 240.369 304.724C240.018 304.829 239.624 304.921 239.186 305C238.748 305.078 238.315 305.149 237.885 305.21C237.456 305.271 237.084 305.324 236.769 305.368C236.059 305.464 235.424 305.622 234.863 305.841C234.303 306.06 233.86 306.366 233.536 306.76C233.212 307.146 233.05 307.645 233.05 308.258C233.05 309.134 233.37 309.795 234.009 310.242C234.649 310.689 235.463 310.912 236.453 310.912ZM260.735 293.818V297.497H249.133V293.818H260.735ZM251.997 288.983H256.753V307.93C256.753 308.569 256.85 309.06 257.042 309.401C257.244 309.734 257.507 309.962 257.831 310.085C258.155 310.207 258.514 310.268 258.908 310.268C259.206 310.268 259.478 310.247 259.723 310.203C259.977 310.159 260.17 310.12 260.301 310.085L261.102 313.803C260.848 313.891 260.485 313.987 260.012 314.092C259.548 314.197 258.978 314.258 258.304 314.276C257.113 314.311 256.039 314.131 255.085 313.737C254.13 313.334 253.372 312.712 252.812 311.871C252.26 311.031 251.988 309.979 251.997 308.718V288.983ZM264.712 314V293.818H269.469V314H264.712ZM267.104 290.954C266.35 290.954 265.702 290.704 265.159 290.205C264.616 289.697 264.345 289.088 264.345 288.379C264.345 287.66 264.616 287.051 265.159 286.552C265.702 286.044 266.35 285.79 267.104 285.79C267.866 285.79 268.514 286.044 269.048 286.552C269.591 287.051 269.863 287.66 269.863 288.379C269.863 289.088 269.591 289.697 269.048 290.205C268.514 290.704 267.866 290.954 267.104 290.954ZM292.387 293.818L285.2 314H279.944L272.757 293.818H277.829L282.467 308.81H282.677L287.328 293.818H292.387ZM303.926 314.394C301.903 314.394 300.155 313.974 298.684 313.133C297.221 312.283 296.095 311.083 295.307 309.533C294.519 307.973 294.125 306.138 294.125 304.027C294.125 301.951 294.519 300.129 295.307 298.561C296.104 296.985 297.217 295.758 298.644 294.882C300.072 293.998 301.75 293.555 303.677 293.555C304.921 293.555 306.094 293.757 307.198 294.16C308.311 294.554 309.292 295.167 310.141 295.999C311 296.831 311.674 297.891 312.165 299.179C312.655 300.458 312.9 301.982 312.9 303.751V305.21H296.358V302.004H308.341C308.332 301.093 308.135 300.283 307.75 299.573C307.364 298.855 306.826 298.29 306.134 297.878C305.451 297.467 304.653 297.261 303.742 297.261C302.77 297.261 301.916 297.497 301.18 297.97C300.445 298.434 299.871 299.048 299.459 299.81C299.056 300.563 298.85 301.391 298.842 302.293V305.092C298.842 306.265 299.056 307.273 299.485 308.114C299.915 308.946 300.515 309.585 301.285 310.032C302.056 310.47 302.958 310.689 303.992 310.689C304.684 310.689 305.31 310.593 305.871 310.4C306.432 310.198 306.918 309.905 307.329 309.52C307.741 309.134 308.052 308.657 308.262 308.087L312.703 308.587C312.423 309.76 311.889 310.785 311.1 311.661C310.321 312.528 309.322 313.203 308.105 313.685C306.887 314.158 305.494 314.394 303.926 314.394Z" fill="#27304C"/>
</svg>
