<svg width="403" height="403" viewBox="0 0 403 403" fill="none" xmlns="http://www.w3.org/2000/svg">
<circle cx="201.5" cy="201.5" r="201.5" fill="white"/>
<path d="M201.857 186.041C212.494 186.041 221.117 177.418 221.117 166.781C221.117 156.144 212.494 147.521 201.857 147.521C191.22 147.521 182.597 156.144 182.597 166.781C182.597 177.418 191.22 186.041 201.857 186.041Z" fill="#00D8FF"/>
<path d="M201.857 210.941C178.707 211.501 155.616 208.38 133.445 201.696C123.203 198.449 113.651 193.335 105.271 186.611C102.073 184.314 99.4104 181.353 97.4649 177.93C95.5193 174.507 94.3374 170.703 94 166.781C94 154.046 107.991 141.565 131.426 133.399C154.19 126.163 177.974 122.656 201.857 123.014C225.422 122.685 248.887 126.128 271.363 133.214C281.227 136.359 290.455 141.226 298.621 147.59C301.764 149.78 304.387 152.634 306.304 155.95C308.221 159.267 309.385 162.964 309.714 166.781C309.714 180.016 294.075 193.429 268.883 201.765C247.141 208.232 224.537 211.326 201.857 210.941ZM201.857 132.228C179.008 131.923 156.255 135.256 134.454 142.105C112.883 149.631 103.214 159.924 103.214 166.758C103.214 173.907 113.607 185.147 136.426 192.952C157.636 199.314 179.72 202.276 201.857 201.727C223.555 202.115 245.184 199.179 265.994 193.021C289.684 185.17 300.47 173.915 300.47 166.781C300.081 164.333 299.189 161.992 297.849 159.906C296.51 157.82 294.753 156.035 292.688 154.662C285.383 149.016 277.139 144.703 268.336 141.92C246.834 135.169 224.391 131.897 201.857 132.228Z" fill="#00D8FF"/>
<path d="M158.098 262.843C154.504 262.926 150.952 262.054 147.805 260.316C136.773 253.953 132.952 235.601 137.582 211.218C142.687 187.883 151.532 165.527 163.776 145.017C175.26 124.44 189.963 105.833 207.327 89.9017C214.978 82.9273 223.805 77.3637 233.398 73.4689C236.867 71.8429 240.652 71 244.484 71C248.316 71 252.1 71.8429 255.57 73.4689C267.041 80.079 270.839 100.325 265.485 126.311C260.222 148.38 251.607 169.511 239.938 188.969C228.858 209.302 214.618 227.747 197.751 243.614C189.822 250.862 180.619 256.579 170.609 260.478C166.602 261.965 162.372 262.765 158.098 262.843ZM171.757 149.593C160.079 169.233 151.601 190.607 146.642 212.913C142.382 235.37 146.472 248.876 152.42 252.312C158.583 255.879 173.545 252.497 191.711 236.626C207.813 221.426 221.404 203.77 231.98 184.315C243.158 165.714 251.423 145.511 256.487 124.408C261.525 99.9479 257.172 84.9711 250.994 81.4118C248.678 80.5245 246.203 80.1273 243.726 80.2454C241.249 80.3634 238.823 80.994 236.603 82.0975C228.064 85.6209 220.214 90.6231 213.413 96.8739C196.824 112.134 182.779 129.947 171.811 149.639L171.757 149.593Z" fill="#00D8FF"/>
<path d="M245.594 262.943C235.155 262.943 221.896 256.626 208.09 244.754C190.422 228.678 175.471 209.85 163.815 188.999C151.725 168.771 142.95 146.739 137.821 123.738C135.597 113.619 135.185 103.185 136.604 92.9217C136.932 89.1144 138.091 85.4254 140 82.1149C141.909 78.8044 144.521 75.9529 147.652 73.7616C159.108 67.1284 178.545 73.9465 198.383 91.5581C214.874 107.137 228.879 125.153 239.908 144.978C251.99 164.734 260.858 186.284 266.179 208.822C268.499 219.313 268.857 230.142 267.234 240.763C266.848 244.68 265.62 248.467 263.633 251.865C261.647 255.262 258.949 258.19 255.725 260.447C252.629 262.163 249.132 263.024 245.594 262.943ZM171.788 184.362C182.97 204.288 197.253 222.307 214.099 237.743C231.426 252.651 245.17 255.855 251.079 252.381C257.242 248.798 261.788 234.176 257.104 210.517C251.972 188.999 243.466 168.429 231.903 149.57C221.378 130.596 208.011 113.344 192.266 98.4147C173.591 81.8355 158.445 78.1299 152.274 81.7045C150.351 83.2676 148.772 85.2124 147.639 87.4163C146.505 89.6201 145.84 92.0351 145.687 94.5087C144.462 103.662 144.861 112.959 146.866 121.974C151.799 143.97 160.215 165.037 171.796 184.377L171.788 184.362Z" fill="#00D8FF"/>
<path d="M117.228 321V288.273H129.501C132.015 288.273 134.124 288.71 135.829 289.583C137.544 290.457 138.838 291.682 139.712 293.259C140.596 294.825 141.038 296.652 141.038 298.74C141.038 300.838 140.591 302.66 139.696 304.205C138.812 305.739 137.507 306.927 135.781 307.768C134.055 308.599 131.935 309.015 129.421 309.015H120.68V304.093H128.622C130.092 304.093 131.296 303.891 132.233 303.486C133.171 303.07 133.863 302.468 134.311 301.68C134.769 300.881 134.998 299.901 134.998 298.74C134.998 297.578 134.769 296.588 134.311 295.767C133.853 294.936 133.155 294.308 132.217 293.882C131.28 293.445 130.071 293.227 128.59 293.227H123.157V321H117.228ZM134.135 306.17L142.237 321H135.621L127.663 306.17H134.135ZM156.755 321.479C154.294 321.479 152.169 320.968 150.379 319.945C148.6 318.912 147.231 317.452 146.272 315.567C145.313 313.67 144.834 311.439 144.834 308.871C144.834 306.346 145.313 304.13 146.272 302.223C147.241 300.306 148.594 298.814 150.331 297.749C152.067 296.673 154.107 296.135 156.451 296.135C157.964 296.135 159.392 296.38 160.734 296.87C162.087 297.349 163.28 298.095 164.313 299.107C165.357 300.119 166.178 301.408 166.774 302.974C167.371 304.53 167.669 306.384 167.669 308.536V310.309H147.55V306.41H162.124C162.113 305.302 161.874 304.317 161.405 303.454C160.936 302.58 160.281 301.893 159.439 301.392C158.608 300.892 157.639 300.641 156.531 300.641C155.349 300.641 154.31 300.929 153.415 301.504C152.52 302.069 151.822 302.815 151.322 303.741C150.831 304.658 150.581 305.664 150.57 306.762V310.165C150.57 311.593 150.831 312.818 151.354 313.841C151.876 314.853 152.605 315.631 153.543 316.174C154.48 316.707 155.578 316.973 156.835 316.973C157.676 316.973 158.438 316.856 159.12 316.621C159.802 316.376 160.393 316.02 160.894 315.551C161.394 315.082 161.773 314.501 162.028 313.809L167.43 314.416C167.089 315.844 166.439 317.09 165.48 318.156C164.532 319.21 163.317 320.031 161.836 320.616C160.356 321.192 158.662 321.479 156.755 321.479ZM179.626 321.495C178.071 321.495 176.67 321.218 175.424 320.664C174.188 320.1 173.208 319.269 172.483 318.172C171.769 317.074 171.413 315.721 171.413 314.113C171.413 312.728 171.668 311.582 172.18 310.677C172.691 309.771 173.389 309.047 174.273 308.504C175.157 307.96 176.153 307.55 177.261 307.273C178.38 306.985 179.536 306.778 180.729 306.65C182.167 306.501 183.334 306.368 184.229 306.25C185.123 306.123 185.773 305.931 186.178 305.675C186.594 305.409 186.801 304.999 186.801 304.445V304.349C186.801 303.145 186.445 302.213 185.731 301.552C185.017 300.892 183.989 300.561 182.647 300.561C181.23 300.561 180.106 300.87 179.275 301.488C178.454 302.106 177.9 302.836 177.613 303.678L172.212 302.911C172.638 301.419 173.341 300.173 174.321 299.171C175.301 298.159 176.5 297.403 177.916 296.902C179.333 296.391 180.899 296.135 182.615 296.135C183.797 296.135 184.974 296.273 186.146 296.55C187.318 296.827 188.389 297.286 189.358 297.925C190.328 298.553 191.105 299.411 191.691 300.498C192.288 301.584 192.586 302.942 192.586 304.572V321H187.025V317.628H186.833C186.482 318.31 185.986 318.949 185.347 319.546C184.719 320.132 183.925 320.606 182.966 320.968C182.018 321.32 180.905 321.495 179.626 321.495ZM181.128 317.245C182.29 317.245 183.296 317.016 184.149 316.558C185.001 316.089 185.656 315.471 186.114 314.704C186.583 313.937 186.817 313.1 186.817 312.195V309.303C186.636 309.452 186.327 309.59 185.891 309.718C185.464 309.846 184.985 309.958 184.452 310.054C183.92 310.15 183.392 310.235 182.87 310.309C182.348 310.384 181.896 310.448 181.512 310.501C180.649 310.618 179.877 310.81 179.195 311.076C178.513 311.343 177.975 311.716 177.581 312.195C177.187 312.664 176.99 313.271 176.99 314.017C176.99 315.082 177.378 315.886 178.156 316.43C178.934 316.973 179.925 317.245 181.128 317.245ZM209.11 321.479C206.659 321.479 204.555 320.941 202.797 319.865C201.05 318.789 199.703 317.303 198.755 315.407C197.817 313.5 197.348 311.305 197.348 308.823C197.348 306.33 197.828 304.13 198.786 302.223C199.745 300.306 201.098 298.814 202.845 297.749C204.603 296.673 206.681 296.135 209.078 296.135C211.07 296.135 212.833 296.502 214.367 297.238C215.912 297.962 217.142 298.99 218.059 300.322C218.975 301.643 219.497 303.187 219.625 304.956H214.095C213.872 303.773 213.339 302.788 212.497 302C211.666 301.201 210.553 300.801 209.158 300.801C207.975 300.801 206.936 301.121 206.041 301.76C205.147 302.388 204.449 303.294 203.948 304.477C203.458 305.659 203.213 307.076 203.213 308.727C203.213 310.4 203.458 311.838 203.948 313.042C204.438 314.235 205.125 315.157 206.009 315.806C206.904 316.446 207.954 316.765 209.158 316.765C210.01 316.765 210.772 316.605 211.443 316.286C212.125 315.956 212.695 315.482 213.153 314.864C213.611 314.246 213.925 313.495 214.095 312.61H219.625C219.486 314.347 218.975 315.886 218.09 317.229C217.206 318.56 216.002 319.604 214.479 320.361C212.956 321.107 211.166 321.479 209.11 321.479ZM236.631 296.455V300.929H222.521V296.455H236.631ZM226.005 290.574H231.789V313.617C231.789 314.395 231.907 314.991 232.141 315.407C232.386 315.812 232.706 316.089 233.1 316.238C233.494 316.387 233.931 316.462 234.41 316.462C234.772 316.462 235.103 316.435 235.401 316.382C235.71 316.328 235.944 316.281 236.104 316.238L237.079 320.76C236.77 320.867 236.328 320.984 235.752 321.112C235.188 321.24 234.495 321.314 233.675 321.336C232.226 321.378 230.921 321.16 229.76 320.68C228.599 320.19 227.677 319.434 226.995 318.411C226.324 317.388 225.994 316.11 226.005 314.576V290.574ZM254.637 288.273H260.518V311.284C260.507 313.393 260.06 315.21 259.175 316.733C258.291 318.246 257.055 319.413 255.468 320.233C253.891 321.043 252.054 321.447 249.955 321.447C248.037 321.447 246.311 321.107 244.777 320.425C243.254 319.732 242.045 318.71 241.15 317.357C240.255 316.004 239.807 314.32 239.807 312.307H245.704C245.715 313.191 245.907 313.953 246.279 314.592C246.663 315.231 247.19 315.721 247.861 316.062C248.533 316.403 249.305 316.574 250.179 316.574C251.127 316.574 251.931 316.376 252.592 315.982C253.252 315.577 253.753 314.981 254.094 314.192C254.445 313.404 254.626 312.435 254.637 311.284V288.273ZM286.094 302.942L280.82 303.518C280.671 302.985 280.41 302.484 280.037 302.016C279.675 301.547 279.185 301.169 278.567 300.881C277.949 300.593 277.193 300.45 276.298 300.45C275.094 300.45 274.082 300.711 273.262 301.233C272.452 301.755 272.053 302.431 272.063 303.262C272.053 303.976 272.314 304.556 272.846 305.004C273.39 305.451 274.285 305.819 275.531 306.107L279.718 307.001C282.04 307.502 283.766 308.296 284.895 309.382C286.035 310.469 286.611 311.891 286.621 313.649C286.611 315.194 286.158 316.558 285.263 317.74C284.379 318.912 283.148 319.828 281.571 320.489C279.995 321.149 278.184 321.479 276.138 321.479C273.134 321.479 270.716 320.851 268.883 319.594C267.051 318.326 265.959 316.563 265.607 314.304L271.248 313.761C271.504 314.869 272.047 315.705 272.878 316.27C273.709 316.835 274.791 317.117 276.122 317.117C277.497 317.117 278.599 316.835 279.43 316.27C280.272 315.705 280.693 315.007 280.693 314.176C280.693 313.473 280.421 312.893 279.878 312.435C279.345 311.977 278.514 311.625 277.385 311.38L273.198 310.501C270.843 310.011 269.102 309.185 267.972 308.024C266.843 306.852 266.284 305.371 266.294 303.582C266.284 302.069 266.694 300.759 267.525 299.651C268.367 298.532 269.533 297.669 271.025 297.062C272.527 296.444 274.258 296.135 276.218 296.135C279.095 296.135 281.358 296.748 283.01 297.973C284.672 299.198 285.7 300.854 286.094 302.942Z" fill="#27304C"/>
</svg>
